<?xml version="1.0" encoding="UTF-8"?>
<!DOCTYPE svg PUBLIC "-//W3C//DTD SVG 1.1//EN" "http://www.w3.org/Graphics/SVG/1.1/DTD/svg11.dtd">
<!-- Creator: CorelDRAW 2020 (64-Bit) -->
<svg xmlns="http://www.w3.org/2000/svg" xml:space="preserve" width="8156px" height="5230px" version="1.1" style="shape-rendering:geometricPrecision; text-rendering:geometricPrecision; image-rendering:optimizeQuality; fill-rule:evenodd; clip-rule:evenodd"
viewBox="0 0 2176.09 1395.37"
 xmlns:xlink="http://www.w3.org/1999/xlink"
 xmlns:xodm="http://www.corel.com/coreldraw/odm/2003">
 <defs>
  <style type="text/css">
   <![CDATA[
    .fil0 {fill:#1C3B42}
    .fil2 {fill:#1C3B42}
    .fil1 {fill:#B8E100}
   ]]>
  </style>
 </defs>
 <g id="Layer_x0020_1">
  <metadata id="CorelCorpID_0Corel-Layer"/>
  <path class="fil0" d="M687.36 1389.92c4.63,0.75 6.92,0.93 11.47,-0.36l-0.35 -311.93c-3.55,-2.5 -6.01,-2.14 -10.9,-1.27l-0.22 313.56z"/>
  <path class="fil0" d="M62.08 1313.81c18.05,-11.84 24.94,-20.7 52.42,-29.25 28.45,-8.85 42.97,-6.17 72.12,-3.55l-55.01 -120.95 -69.53 153.75zm46.21 -237.59c6.31,5.32 10.09,7.23 13.82,13.98 11.48,20.71 -3.71,38.28 -14.39,63.27l-90.08 197.88c-4.8,11.28 -14.52,28.88 -17.64,39.1l26.86 -0.1c4.26,-12.76 12.53,-30.43 18.7,-41.21 25.32,-44.32 98.75,-61.89 148.35,-37.08 8.05,4.02 10.86,6.16 14.43,15.41 8.07,20.86 16.35,44.24 34.98,55.24 18.48,10.92 61.76,9.61 81.12,7.38 -3.52,-2.51 -6.85,-3.53 -9.98,-6.31 -22.02,-19.56 -30.52,-43.63 -43.55,-73.12l-61.99 -137c-7.14,-15.35 -14.08,-30.64 -20.76,-45.94 -18.92,-43.33 -17.35,-51.74 -48.1,-51.75 -10.26,0 -21.65,-0.39 -31.77,0.25zm187.59 -0.25c2.46,2.66 4.06,2.82 7.1,4.68 19.96,12.19 21.77,42.1 21.84,62.84l0.1 88.94c0,33.13 -2.69,59.9 10.76,91.14 12.99,30.21 37.11,50.28 67.69,61.47 44.69,16.33 98.33,13.79 139.28,-11.22 7.68,-4.7 12.4,-9.82 18.26,-15.12 3.41,-3.08 5.48,-5.98 8.4,-9.39 2.36,-2.75 5.46,-5.99 7.67,-9.06 15.73,-21.84 21.95,-52.28 21.95,-80.02l-0.13 -148.98c0.06,-43.98 4.82,-34.83 -24.21,-35.13l-0.23 176.32c-0.09,45.46 -10.97,83.04 -48.98,105.12 -37.87,21.99 -89.47,14.64 -111.44,-16.54 -15.68,-22.27 -20.85,-47.29 -20.88,-80.79l0.21 -132.3c0.11,-37.52 -6.81,-52.04 -45.32,-52.04l-52.07 0.08z"/>
  <path class="fil0" d="M2137.18 1341.38c0.01,-7.94 1.55,-51.99 -1.4,-54.73 1.46,-2.23 -5.99,2.7 -9.7,4.2 -4.09,1.65 -8.67,3 -13.19,4.57 -8.4,2.93 -17.64,6.01 -25.4,10.13 -18.19,9.67 -27.35,26.5 -24.83,46.69 2.66,21.29 18.39,33.46 43.09,29 11.24,-2.04 16.94,-7.08 23.4,-11.75l6.56 -6.9c0.36,-0.65 1.14,-2.52 1.23,-2.89 0.89,-3.66 0.23,-13.88 0.24,-18.32zm-150.01 -167.87c5.96,-25.37 -31.42,-31.81 -36.15,-9.03 -5.35,25.75 30.64,32.48 36.15,9.03zm-569.49 2.22c8.89,-24.72 -26.28,-35.28 -34.97,-13.55 -4.76,11.92 2.39,21.96 11.36,24.83 11.02,3.53 20.83,-3.57 23.61,-11.28zm57.69 131.29l83.19 0.06 -0.1 -16.26 -83.5 -0.01 0.41 16.21zm-608.87 -211.96c4.19,-1.31 1.32,1.13 7.35,-6.01 6.88,-8.16 13.15,-12.74 18.04,-18.61 7.18,-8.6 15.03,-16.6 21.34,-25.51 -7.55,-0.51 -17.57,4.03 -24.21,6.98 -28.22,12.53 -13.09,13.29 -41.72,0.15 -7.78,-3.57 -14.63,-5.28 -23.42,-7.21 4.86,10.78 35.97,39.58 42.62,50.21zm440.75 142.83c7.18,-5.45 16.19,-10.03 25.13,-15.25l-40.41 0.21c1.41,9.62 8.05,7.39 -6.94,24.91l-15.16 15.09c-9.81,7.8 -14.1,14.15 -17.6,16.85 -1.71,1.32 -3,2.1 -4.98,3.82l-11.16 11.08c-3.77,3.05 -4.93,3.12 -7.22,7.87 1.76,4.05 7.23,9.7 10.17,12.73 4.24,4.37 6.4,6.11 10.24,10.86l44.88 51.82c10.67,11.08 9.13,12.79 18.73,12.82l28.94 0.18c5.84,-0.49 5.36,-1.43 6.63,-2.64 -14.46,-4.6 -40.87,-41.05 -55.27,-54.92l-17.22 -19.5c-15.3,-16.94 -14.57,-18.16 -33,-15.79l64.24 -60.14zm71.7 -10.28c2.82,3.88 3.95,5.64 5.34,11.18 3.33,13.3 4.52,130.15 -1.77,144.42l-3.58 5.74c-0.13,0.22 -0.4,1.11 -0.5,0.93 -0.09,-0.19 -0.35,0.62 -0.49,0.73l46.89 -0.49c-3.71,-4.87 -5.29,-6.27 -7.05,-14.56 -3.05,-14.3 -1.75,-136.04 -1.62,-152.61l-40.16 0.01 2.94 4.65zm565.6 -4.83c0.16,0.38 0.38,0.78 0.55,1.09 0.17,0.29 0.35,0.69 0.55,1.03 3.27,5.42 5.46,4.87 7.63,14.08 3.06,12.94 3.22,122.73 0.42,136.36 -1.47,7.12 -4.9,11.08 -7.31,15.2l47.51 -0.51c-12.76,-12.24 -8.72,-56.25 -8.79,-78.66 -0.09,-29.2 -0.77,-59.69 0.01,-88.72l-40.57 0.13zm-167.95 5.21c0.71,0.95 1.48,1.76 2.29,3.16 4.46,7.65 4.39,21.46 4.49,30.19l0.03 91.16c-0.16,20.44 -0.64,23.03 -7.94,37.94l47.35 -0.33c-12.99,-14.16 -8.95,-55.11 -8.92,-78.74 0.04,-29.46 -0.5,-59.32 0.08,-88.67l-40.48 0.09 3.1 5.2zm82.43 -84.25c4.22,6.32 7.29,6.47 9.31,17.84 2.22,12.5 1.23,154.84 1.39,184.25 0.13,23.92 0.86,26.5 -7.82,44.87l47.06 -0.23c-2.87,-7.28 -6.5,-7.21 -8.12,-19.99 -2.3,-18.22 -1.05,-195.31 -1.31,-226.73l-40.51 -0.01zm-673.65 0c10.84,11.41 10.52,21.59 10.4,42l0.02 163.42c0.05,21.73 0.79,26.51 -8.54,41.49l48.62 -0.49c-10.5,-10.97 -10.07,-23.43 -10.07,-43.22l0.19 -40.02c-0.22,-51.84 0.93,-113.51 -0.35,-163.08l-40.27 -0.1zm-41.43 217.82c-3.53,3.17 -3.58,4.25 -8.15,7.24 -3.13,2.05 -5.1,3.67 -8.49,5.95 -21.09,14.13 -49.64,15.96 -68.97,4.36 -14.13,-8.48 -21.02,-16.47 -27.87,-32.01 -6.83,-15.48 -8.25,-32.65 -7.15,-50.94 5.42,-1.22 25.43,0.02 32.8,-0.05 10.75,-0.08 21.49,0.07 32.24,0.08 14.17,0.02 52.83,1.78 64.18,-0.57 2,-91.98 -134.32,-105.56 -159.48,-12.76 -8.38,30.93 -0.2,64.14 21.32,85.81 21.16,21.3 52.76,29.78 83.84,24.98 25.74,-3.98 33.68,-13.91 49.58,-24.93 -0.95,-4.81 -1.07,-4.34 -3.85,-7.16zm907.66 -98.74c3.14,-7 8.03,-15.59 12.39,-20.86 4.83,-5.81 10.91,-9.77 20.05,-13.18 21.18,-7.92 37.11,-2.71 46.92,11.61 4.9,7.16 6.11,16.45 6.35,26.52 0.19,7.42 0.21,8.3 -4.27,11.84 -15.34,12.14 -40.8,14.55 -60.6,22.7 -19.85,8.16 -28.97,13.3 -37.48,29.43 -8.77,16.63 -2.84,42.35 7.91,50.98 14.15,11.35 33.93,14.88 52.38,11.53 22.53,-4.08 29.44,-14.63 41.62,-24.59l0.26 21.52 38.95 0.32c-1.6,-3.83 0.1,-0.29 -2.25,-4.08 -0.7,-1.14 -1.36,-1.96 -2.1,-3.41 -6.44,-12.56 -4.34,-52.16 -4.34,-67.34 0.01,-43.87 9.95,-97.71 -68.48,-96.02 -24.28,0.52 -41.61,7.94 -59.79,21.55 1.25,4.31 3.21,7.05 5.53,10.86l4.82 8.64c1.54,1.89 0.2,0.55 2.13,1.98zm-493.64 -86.5c2.92,-3.91 10.28,-11.58 14.47,-14.52 16.41,-11.54 65.02,-12.41 77.68,-9.79 0.96,10.15 0.87,203.41 -0.43,216.03 -1.42,13.72 -4.89,14.5 -8.93,22.39l52.11 -0.16c-6.25,-6.6 -7.87,-9.54 -9.66,-22.22 -2.05,-14.57 -2.41,-207.23 -0.93,-216.27l89.54 0.1c9.1,1.83 4.57,13.27 6.66,21.86 4.07,16.79 28.83,19.89 36.06,2.01 6.74,-16.69 -6.5,-33.86 -22.45,-34.31 -17.68,-0.5 -39.14,2.1 -57.81,2.23 -58.18,0.4 -119.5,-1.53 -176.67,0.12l0.36 32.53zm-771.32 191.24c9.87,4.88 11.11,9.4 31.4,17.45 71.27,28.26 152.28,-4.32 137.02,-82.39 -5.78,-29.58 -20.02,-37.24 -36.46,-49.42 -17.43,-12.92 -82,-29.54 -98.05,-58.62 -6.1,-11.06 -7.61,-26.79 -3.29,-39.82 12.97,-39.14 76.43,-50.97 103.28,-0.26 2.69,5.06 5.88,10.75 6.98,16.54 3.76,-2.44 0.68,0.7 3.65,-3.68l12.25 -24.98c-2.19,-2.25 -3.82,-3.06 -6.51,-5.35 -15.39,-13.1 -42.49,-20.92 -63.27,-22.14 -25.4,-1.5 -55.74,7.86 -69.81,26.49 -14.99,19.84 -21.47,47.02 -9.94,75.31 7.47,18.34 20.15,28.66 35.93,37.54 24.18,13.6 63.33,26.18 79.74,41.4 16.6,15.39 28.99,40.02 11.02,68.12 -20.49,32.03 -79.76,37.09 -110.29,-11.09 -3.51,-5.53 -5.96,-12.34 -9.15,-14.88 -3.46,7.29 -13.3,21.82 -14.5,29.78zm334.02 -79.53c5,-13.52 -9.47,-66 -48.98,-62.24 -17.52,1.67 -28.43,11.54 -34.65,22 -6.63,11.16 -12.92,26.46 -12.96,42.63 31.08,-1.77 43.06,-1.67 72.06,-1.67l24.53 -0.72z"/>
  <path class="fil1" d="M1286.37 645.53c14.67,-1.62 39.61,-0.43 54.35,-0.51 11.91,-0.06 35.76,0.33 61.67,0.51l0.02 0c43.01,0.29 91.73,-0.02 101.05,-4.01 35.34,-15.13 29.35,-49.76 29.23,-82.8l0.13 -223.46c0,-19.71 -2.45,-31.1 -13.28,-42.06 -11.24,-11.38 -19.68,-14.55 -40.96,-14.84 -74.23,-1 -148.94,1.52 -223.19,-0.35 -1.91,-9 -0.39,-211.1 -0.96,-230.65 -0.54,-18.52 -8.14,-27.06 -19.49,-37.7 -11.8,-11.08 -30.45,-9.56 -48.75,-9.55l-230.13 -0.05c-22.64,-0.01 -31.58,-1.42 -48.18,10.17 -9.53,6.65 -18.66,20.24 -19.16,38.16 -0.65,23.57 1.34,225.26 -0.69,228.37l-55.37 1.77c-53.37,0 -115.7,-1.46 -166.76,-0.26 -9.25,0.22 -16.1,0.35 -24.38,3.57 -6.41,2.48 -13.74,7.55 -16.83,11.11 -9.62,11.08 -13.96,21.72 -14.02,41.2 -0.13,37.04 0.14,74.13 0.16,111.18 0.02,37.42 0.17,74.86 0,112.28 -0.15,31.13 -4.68,49.77 11.32,71.57 3.18,4.33 9.73,8.78 16.31,11.57 18.18,7.72 82.25,4.36 106.37,4.37 7.75,0 15.5,0 23.24,0l1.2 0 1.75 0 1.75 0 17.46 0 98.41 0 0 51.58c0.06,1.99 0.02,4.46 0,7.69l0 46.28 0.02 109.33c-0.22,25.23 -1.22,33.74 12.69,50.25 10.5,12.47 23.96,15.98 45.82,15.63 41.04,-0.64 82.34,-0.21 123.4,-0.2 41.09,0 82.33,-0.32 123.4,0.3 48.11,0.72 60.97,-17.73 60.88,-62.64l-0.05 -154.53c0,-8.74 -0.83,-13.03 0.02,-16.97l0 -46.31 31.55 0z"/>
  <path class="fil2" d="M1081.83 541.24c1.22,-4.65 10.54,-15.86 13.33,-19.05 4.49,-5.15 11.44,-11.26 16.43,-16.03 -4.91,0.35 -17.44,9.95 -20.31,12.17 -3.36,2.6 -6.03,5.17 -8.72,8.48 -2.43,3 -4.38,6.55 -7.54,8.95 -1.05,-22.72 9.98,-39.36 26.77,-51.55 16.81,-12.2 44.41,-11.28 67.28,-8.22 -2.25,5.25 -4.08,6.36 -6.98,11.7 -15.68,28.83 -16.28,57.25 -80.26,53.55zm-110.46 -66.49c24.1,-0.42 48.51,-3.41 67.89,8.53 15.77,9.71 26.89,25.21 27.57,51.48 -6.68,-2.45 -4.26,-5.83 -16.68,-15.69 -4.34,-3.44 -12.62,-11.22 -19.15,-12.36 1.89,4.28 14.51,13.07 22.9,24.85 2.69,3.77 5.17,4.97 6.57,9.89 -25.66,3.39 -47.54,-4.25 -60.24,-17.07 -13.36,-13.49 -15.85,-32.75 -24.37,-42.53 -4.21,-4.83 -2.55,-3.76 -4.49,-7.1zm59.83 31.09l-0.42 0.29c0.03,-0.02 0.56,-0.18 0.42,-0.29zm0.95 94.22l-33.54 0.44c-9.75,-0.01 -8.62,-1.31 -14.93,3.89 -10.6,8.71 -21.01,14.77 -17.98,38.55 59.53,1.67 149.82,1.62 209.53,0.07 2.56,-19.01 -3.97,-27.51 -16.07,-37.26 -6.96,-5.61 -8.32,-5.31 -17.61,-5.34l-34.44 -0.23c4.68,-2.61 38.41,-6.55 66.14,-23.27 18.75,-11.31 21.55,-13.68 38.53,-28.33 4.85,-4.18 6.95,-7.84 11.09,-12.22 12.77,-13.52 25.24,-33.57 34.32,-54.85 3.84,-9.01 20.62,-65.21 14.5,-72.44 -2.02,-2.02 -52.86,-1.04 -63.23,-1.04l-329.48 0.06c-9.76,0.01 -15.32,-7.1 -8.96,29.67 4.32,24.98 12.78,46.54 24.44,67.73 9.57,17.41 26.39,38.24 41.65,50.55 48.59,39.16 88.3,39.37 96.04,44.02z"/>
  <path class="fil2" d="M879.99 396.64l384.23 0.11c8.01,0.01 12.15,0.4 18.66,-5.18 0.16,-0.13 0.38,-0.33 0.54,-0.47 0.21,-0.19 0.83,-0.77 1.04,-0.97 1.47,-1.45 0.53,-0.48 1.48,-1.58 0.14,-0.15 0.34,-0.38 0.47,-0.54 3.89,-4.73 5.7,-10.53 4.64,-17.61 -1.39,-9.24 -7.28,-7.71 -18.72,-7.76l-83.32 -0.03 43.74 -69.61c8.99,-1.13 15.48,3.04 27.19,-2.22 8.84,-3.96 12.47,-7.27 16.48,-15.92 12.34,-26.66 -15.65,-63.23 -51.54,-71.14 -30.91,-6.8 -52.72,14.78 -42.37,46.84 3.53,10.96 3.67,5.25 -8.26,18.75 -6.04,6.84 -9.64,10.61 -15.17,17.47l-46.58 51.29c-7.2,8.22 -15.49,16.02 -22.84,24.5l-219.8 -0.09c-7.27,0.01 -12.92,-1.51 -16.68,2.85 -3.84,4.45 -3.76,11.62 -1.24,17.4 5.23,12.02 12.1,13.95 28.05,13.91z"/>
 </g>
</svg>
