<?xml version="1.0" encoding="UTF-8"?>
<!DOCTYPE svg PUBLIC "-//W3C//DTD SVG 1.1//EN" "http://www.w3.org/Graphics/SVG/1.1/DTD/svg11.dtd">
<!-- Creator: CorelDRAW 2020 (64-Bit) -->
<svg xmlns="http://www.w3.org/2000/svg" xml:space="preserve" width="3356px" height="656px" version="1.1" style="shape-rendering:geometricPrecision; text-rendering:geometricPrecision; image-rendering:optimizeQuality; fill-rule:evenodd; clip-rule:evenodd"
viewBox="0 0 1054.95 206.28"
 xmlns:xlink="http://www.w3.org/1999/xlink"
 xmlns:xodm="http://www.corel.com/coreldraw/odm/2003">
 <defs>
  <style type="text/css">
   <![CDATA[
    .fil0 {fill:#1C3B42}
    .fil1 {fill:#B8E100}
   ]]>
  </style>
 </defs>
 <g id="Layer_x0020_1">
  <metadata id="CorelCorpID_0Corel-Layer"/>
  <path class="fil0" d="M1032.04 174.67c0,-4.68 0.91,-30.63 -0.83,-32.24 0.86,-1.31 -3.53,1.59 -5.71,2.47 -2.41,0.97 -5.11,1.77 -7.77,2.7 -4.95,1.72 -10.39,3.53 -14.96,5.96 -10.72,5.7 -16.11,15.61 -14.63,27.5 1.57,12.55 10.84,19.72 25.38,17.09 6.63,-1.2 9.98,-4.17 13.79,-6.92l3.86 -4.07c0.21,-0.38 0.67,-1.48 0.72,-1.7 0.53,-2.16 0.14,-8.18 0.15,-10.79zm-88.37 -98.88c3.52,-14.95 -18.5,-18.74 -21.29,-5.32 -3.15,15.16 18.05,19.13 21.29,5.32zm-335.45 1.31c5.24,-14.57 -15.48,-20.79 -20.59,-7.99 -2.81,7.03 1.4,12.93 6.69,14.63 6.48,2.08 12.27,-2.11 13.9,-6.64zm33.98 77.33l49.01 0.03 -0.06 -9.57 -49.19 -0.01 0.24 9.55zm-358.64 -124.86c2.46,-0.77 0.77,0.67 4.32,-3.53 4.06,-4.81 7.75,-7.51 10.63,-10.97 4.23,-5.07 8.85,-9.78 12.57,-15.02 -4.45,-0.31 -10.35,2.37 -14.26,4.11 -16.62,7.38 -7.71,7.82 -24.57,0.09 -4.59,-2.11 -8.62,-3.12 -13.8,-4.25 2.86,6.35 21.19,23.32 25.11,29.57zm259.61 84.14c4.23,-3.21 9.54,-5.91 14.81,-8.98l-23.81 0.12c0.83,5.66 4.74,4.35 -4.08,14.67l-8.94 8.89c-5.78,4.59 -8.3,8.33 -10.36,9.92 -1.01,0.78 -1.77,1.24 -2.94,2.26l-6.57 6.52c-2.22,1.8 -2.9,1.84 -4.25,4.64 1.04,2.38 4.26,5.71 5.99,7.5 2.5,2.57 3.77,3.6 6.03,6.39l26.44 30.53c6.28,6.52 5.37,7.53 11.03,7.55l17.05 0.1c3.44,-0.28 3.15,-0.84 3.9,-1.55 -8.52,-2.71 -24.07,-24.18 -32.55,-32.35l-10.15 -11.49c-9.01,-9.97 -8.58,-10.69 -19.43,-9.29l37.83 -35.43zm42.24 -6.06c1.66,2.29 2.33,3.32 3.14,6.59 1.96,7.84 2.67,76.66 -1.04,85.07l-2.11 3.38c-0.08,0.13 -0.23,0.65 -0.29,0.54 -0.06,-0.11 -0.21,0.37 -0.29,0.44l27.62 -0.29c-2.18,-2.87 -3.11,-3.7 -4.15,-8.58 -1.8,-8.42 -1.04,-80.13 -0.96,-89.89l-23.65 0 1.73 2.74zm333.16 -2.84c0.09,0.22 0.22,0.46 0.32,0.64 0.1,0.17 0.21,0.41 0.33,0.61 1.92,3.19 3.21,2.87 4.49,8.29 1.8,7.62 1.9,72.3 0.25,80.32 -0.87,4.2 -2.89,6.53 -4.31,8.96l27.99 -0.31c-7.52,-7.2 -5.14,-33.13 -5.18,-46.33 -0.05,-17.2 -0.45,-35.16 0,-52.26l-23.89 0.08zm-98.93 3.07c0.42,0.55 0.87,1.04 1.35,1.86 2.63,4.5 2.58,12.64 2.64,17.78l0.02 53.7c-0.09,12.04 -0.37,13.57 -4.68,22.35l27.9 -0.2c-7.65,-8.34 -5.28,-32.46 -5.26,-46.38 0.02,-17.35 -0.29,-34.94 0.05,-52.23l-23.85 0.05 1.83 3.07zm48.55 -49.63c2.49,3.72 4.3,3.81 5.49,10.51 1.31,7.36 0.73,91.21 0.82,108.53 0.07,14.09 0.51,15.61 -4.61,26.43l27.72 -0.14c-1.69,-4.29 -3.83,-4.24 -4.78,-11.77 -1.36,-10.73 -0.62,-115.05 -0.77,-133.56l-23.87 0zm-396.8 0c6.38,6.72 6.19,12.71 6.12,24.74l0.01 96.26c0.03,12.8 0.47,15.61 -5.03,24.44l28.64 -0.29c-6.18,-6.46 -5.93,-13.8 -5.93,-25.46l0.11 -23.57c-0.13,-30.54 0.55,-66.86 -0.2,-96.06l-23.72 -0.06zm-24.41 128.3c-2.08,1.87 -2.11,2.51 -4.8,4.27 -1.84,1.2 -3,2.16 -5,3.5 -12.42,8.33 -29.24,9.41 -40.62,2.57 -8.33,-5 -12.38,-9.7 -16.42,-18.85 -4.02,-9.12 -4.86,-19.23 -4.21,-30.01 3.19,-0.72 14.98,0.01 19.32,-0.02 6.33,-0.06 12.66,0.03 18.99,0.04 8.35,0.01 31.12,1.05 37.8,-0.34 1.18,-54.18 -79.12,-62.17 -93.94,-7.51 -4.93,18.21 -0.12,37.78 12.56,50.54 12.46,12.55 31.08,17.54 49.39,14.72 15.16,-2.34 19.84,-8.2 29.2,-14.69 -0.56,-2.83 -0.63,-2.56 -2.27,-4.22zm534.65 -58.16c1.85,-4.12 4.73,-9.18 7.3,-12.28 2.84,-3.43 6.43,-5.76 11.81,-7.77 12.48,-4.66 21.86,-1.59 27.64,6.84 2.89,4.22 3.59,9.69 3.74,15.62 0.11,4.37 0.12,4.89 -2.52,6.98 -9.03,7.15 -24.03,8.57 -35.69,13.37 -11.69,4.8 -17.07,7.83 -22.08,17.33 -5.17,9.8 -1.67,24.95 4.66,30.03 8.34,6.69 19.98,8.77 30.86,6.8 13.26,-2.41 17.34,-8.62 24.51,-14.49l0.15 12.68 22.94 0.18c-0.94,-2.25 0.06,-0.16 -1.32,-2.4 -0.41,-0.67 -0.8,-1.16 -1.24,-2.01 -3.79,-7.4 -2.55,-30.72 -2.55,-39.66 0,-25.85 5.86,-57.56 -40.34,-56.57 -14.3,0.31 -24.51,4.68 -35.22,12.7 0.73,2.54 1.89,4.16 3.26,6.39l2.84 5.1c0.9,1.11 0.11,0.32 1.25,1.16zm-290.77 -50.95c1.72,-2.3 6.05,-6.82 8.52,-8.55 9.67,-6.8 38.3,-7.31 45.76,-5.77 0.56,5.98 0.51,119.82 -0.25,127.25 -0.84,8.08 -2.89,8.54 -5.27,13.19l30.7 -0.1c-3.68,-3.88 -4.64,-5.61 -5.69,-13.08 -1.21,-8.58 -1.42,-122.07 -0.55,-127.4l52.74 0.07c5.37,1.07 2.7,7.81 3.93,12.87 2.39,9.89 16.98,11.72 21.24,1.19 3.97,-9.84 -3.83,-19.95 -13.22,-20.21 -10.42,-0.3 -23.06,1.23 -34.06,1.31 -34.27,0.24 -70.39,-0.9 -104.07,0.07l0.22 19.16zm-454.34 112.65c5.81,2.87 6.54,5.54 18.5,10.28 41.98,16.64 89.69,-2.55 80.71,-48.53 -3.41,-17.43 -11.8,-21.94 -21.48,-29.11 -10.27,-7.61 -48.3,-17.4 -57.76,-34.54 -3.59,-6.51 -4.48,-15.78 -1.93,-23.45 7.64,-23.05 45.02,-30.02 60.83,-0.15 1.58,2.98 3.46,6.33 4.12,9.74 2.21,-1.44 0.4,0.41 2.14,-2.17l7.22 -14.71c-1.29,-1.33 -2.25,-1.8 -3.83,-3.15 -9.07,-7.72 -25.03,-12.32 -37.27,-13.04 -14.97,-0.89 -32.83,4.62 -41.13,15.6 -8.83,11.69 -12.64,27.69 -5.85,44.36 4.4,10.8 11.87,16.88 21.17,22.11 14.24,8.02 37.3,15.43 46.96,24.39 9.78,9.07 17.08,23.57 6.49,40.13 -12.06,18.86 -46.98,21.84 -64.96,-6.54 -2.07,-3.26 -3.51,-7.26 -5.39,-8.76 -2.04,4.29 -7.84,12.85 -8.54,17.54zm196.75 -46.85c2.95,-7.96 -5.58,-38.88 -28.85,-36.66 -10.32,0.98 -16.74,6.8 -20.41,12.96 -3.91,6.57 -7.61,15.58 -7.64,25.11 18.31,-1.05 25.37,-0.98 42.45,-0.98l14.45 -0.43z"/>
  <path class="fil1" d="M129.66 152.51c2.81,-0.31 7.6,-0.09 10.42,-0.1 2.29,-0.01 6.86,0.06 11.83,0.1l0 0c8.25,0.05 17.59,-0.01 19.38,-0.77 6.77,-2.9 5.62,-9.54 5.6,-15.88l0.02 -42.84c0.01,-3.78 -0.46,-5.97 -2.54,-8.07 -2.16,-2.18 -3.78,-2.79 -7.85,-2.84 -14.24,-0.19 -28.56,0.29 -42.8,-0.07 -0.37,-1.73 -0.07,-40.48 -0.18,-44.23 -0.11,-3.55 -1.56,-5.18 -3.74,-7.22 -2.26,-2.13 -5.84,-1.84 -9.35,-1.83l-44.12 -0.01c-4.34,-0.01 -6.06,-0.28 -9.24,1.95 -1.83,1.27 -3.58,3.88 -3.67,7.31 -0.13,4.52 0.25,43.19 -0.14,43.79l-10.61 0.34c-10.23,0 -22.19,-0.28 -31.98,-0.05 -1.77,0.04 -3.08,0.07 -4.67,0.68 -1.23,0.48 -2.64,1.45 -3.23,2.13 -1.84,2.13 -2.67,4.17 -2.69,7.9 -0.02,7.11 0.03,14.22 0.03,21.32 0.01,7.18 0.04,14.36 0,21.53 -0.02,5.97 -0.89,9.54 2.18,13.72 0.6,0.83 1.86,1.68 3.12,2.22 3.49,1.48 15.77,0.84 20.4,0.84 1.48,0 2.97,0 4.45,0l0.23 0 0.34 0 0.33 0 3.35 0 18.87 0 0 9.89c0.01,0.38 0.01,0.85 0,1.47l0 8.88 0 20.96c-0.04,4.84 -0.23,6.47 2.44,9.63 2.01,2.39 4.59,3.07 8.78,3 7.87,-0.12 15.79,-0.04 23.66,-0.04 7.88,0 15.79,-0.06 23.67,0.06 9.22,0.14 11.68,-3.4 11.67,-12.01l-0.01 -29.63c0,-1.67 -0.16,-2.5 0,-3.25l0 -8.88 6.05 0z"/>
 </g>
</svg>
