<?xml version="1.0" encoding="UTF-8"?>
<!DOCTYPE svg PUBLIC "-//W3C//DTD SVG 1.1//EN" "http://www.w3.org/Graphics/SVG/1.1/DTD/svg11.dtd">
<!-- Creator: CorelDRAW 2020 (64-Bit) -->
<svg xmlns="http://www.w3.org/2000/svg" xml:space="preserve" width="3459px" height="3471px" version="1.1" style="shape-rendering:geometricPrecision; text-rendering:geometricPrecision; image-rendering:optimizeQuality; fill-rule:evenodd; clip-rule:evenodd"
viewBox="0 0 4147.43 4160.84"
 xmlns:xlink="http://www.w3.org/1999/xlink"
 xmlns:xodm="http://www.corel.com/coreldraw/odm/2003">
 <defs>
  <style type="text/css">
   <![CDATA[
    .fil1 {fill:#1C3B42}
    .fil0 {fill:#B8E100}
   ]]>
  </style>
 </defs>
 <g id="Layer_x0020_1">
  <metadata id="CorelCorpID_0Corel-Layer"/>
  <path class="fil0" d="M3038.61 2900.58c65.91,-7.25 177.98,-1.93 244.22,-2.28 53.51,-0.28 160.66,1.49 277.11,2.28l0.06 0c193.29,1.32 412.18,-0.07 454.06,-17.99 158.8,-67.98 131.86,-223.59 131.33,-372.06l0.58 -1004.07c0.01,-88.61 -11,-139.74 -59.65,-188.99 -50.53,-51.14 -88.45,-65.41 -184.06,-66.69 -333.54,-4.49 -669.22,6.8 -1002.88,-1.58 -8.59,-40.45 -1.72,-948.54 -4.3,-1036.41 -2.45,-83.2 -36.57,-121.57 -87.56,-169.4 -53.04,-49.75 -136.84,-42.92 -219.05,-42.88l-1034.05 -0.25c-101.74,-0.03 -141.9,-6.37 -216.51,45.71 -42.81,29.88 -83.86,90.93 -86.08,171.47 -2.91,105.9 6.01,1012.18 -3.11,1026.13l-248.79 7.94c-239.8,0 -519.88,-6.54 -749.32,-1.13 -41.58,0.98 -72.35,1.58 -109.57,16.02 -28.78,11.17 -61.73,33.93 -75.6,49.91 -43.24,49.79 -62.71,97.61 -63.01,185.15 -0.56,166.41 0.63,333.09 0.71,499.54 0.09,168.15 0.81,336.41 0.02,504.54 -0.66,139.88 -21.04,223.64 50.86,321.58 14.28,19.45 43.72,39.44 73.31,52 81.67,34.68 369.56,19.57 477.96,19.63 34.8,0.01 69.61,0.02 104.42,0.01l5.39 0 7.85 0 7.84 0 78.46 0 442.19 0 0 231.73c0.27,8.95 0.12,20.07 0,34.59l0 207.92 0.09 491.29c-0.97,113.37 -5.47,151.59 57.04,225.78 47.2,56.01 107.68,71.79 205.88,70.25 184.4,-2.9 369.98,-0.95 554.49,-0.92 184.65,0.02 369.92,-1.41 554.49,1.35 216.18,3.23 273.93,-79.68 273.55,-281.48l-0.22 -694.36c-0.03,-39.24 -3.74,-58.54 0.08,-76.24l0 -208.09 141.77 0z"/>
  <path class="fil1" d="M2119.52 2431.97c5.51,-20.87 47.38,-71.25 59.9,-85.6 20.2,-23.14 51.4,-50.59 73.81,-71.99 -22.03,1.54 -78.36,44.69 -91.25,54.66 -15.08,11.68 -27.1,23.24 -39.16,38.11 -10.92,13.46 -19.68,29.41 -33.91,40.2 -4.7,-102.07 44.87,-176.85 120.32,-231.62 75.54,-54.84 199.52,-50.69 302.32,-36.93 -10.14,23.59 -18.33,28.57 -31.37,52.54 -70.48,129.55 -73.18,257.25 -360.66,240.63zm-496.34 -298.73c108.3,-1.89 218,-15.35 305.09,38.3 70.83,43.63 120.79,113.29 123.87,231.33 -30.04,-11.03 -19.17,-26.22 -74.97,-70.5 -19.51,-15.48 -56.7,-50.43 -86.05,-55.56 8.51,19.25 65.21,58.72 102.9,111.66 12.08,16.96 23.22,22.35 29.53,44.44 -115.31,15.25 -213.62,-19.07 -270.67,-76.68 -60.06,-60.64 -71.22,-147.16 -109.53,-191.12 -18.91,-21.71 -11.45,-16.87 -20.17,-31.87zm268.86 139.68l-1.9 1.32c0.15,-0.11 2.52,-0.85 1.9,-1.32zm4.27 423.36l-150.72 1.99c-43.79,-0.06 -38.71,-5.89 -67.1,17.46 -47.6,39.14 -94.38,66.38 -80.79,173.24 267.49,7.47 673.19,7.25 941.51,0.29 11.52,-85.43 -17.82,-123.61 -72.22,-167.41 -31.28,-25.19 -37.36,-23.87 -79.1,-24.01l-154.78 -1.04c21.03,-11.73 172.61,-29.42 297.19,-104.55 84.28,-50.83 96.85,-61.46 173.14,-127.3 21.77,-18.79 31.22,-35.21 49.83,-54.9 57.37,-60.73 113.41,-150.85 154.2,-246.47 17.26,-40.46 92.68,-292.99 65.15,-325.49 -9.06,-9.07 -237.52,-4.69 -284.08,-4.66l-1480.48 0.25c-43.85,0.06 -68.84,-31.87 -40.25,133.35 19.41,112.21 57.41,209.11 109.79,304.33 43.03,78.22 118.58,171.82 187.18,227.11 218.31,175.95 396.72,176.92 431.53,197.81z"/>
  <path class="fil1" d="M1212.61 1782.26l1726.47 0.46c35.98,0.05 54.59,1.8 83.86,-23.27 0.69,-0.59 1.7,-1.48 2.39,-2.09 0.97,-0.88 3.76,-3.47 4.7,-4.39 6.6,-6.5 2.37,-2.14 6.65,-7.06 0.62,-0.7 1.49,-1.73 2.09,-2.45 17.5,-21.27 25.62,-47.33 20.84,-79.12 -6.24,-41.54 -32.72,-34.66 -84.08,-34.87l-374.42 -0.15 196.56 -312.76c40.37,-5.1 69.56,13.66 122.19,-9.97 39.69,-17.82 56.01,-32.68 74.01,-71.56 55.45,-119.79 -70.3,-284.12 -231.56,-319.63 -138.88,-30.59 -236.9,66.42 -190.41,210.46 15.89,49.25 16.5,23.58 -37.11,84.27 -27.14,30.71 -43.29,47.65 -68.17,78.46l-209.27 230.45c-32.36,36.96 -69.62,72.02 -102.65,110.1l-987.64 -0.39c-32.65,0.06 -58.05,-6.79 -74.94,12.79 -17.26,20 -16.88,52.22 -5.56,78.22 23.5,53.97 54.37,62.67 126.05,62.5z"/>
 </g>
</svg>
